# xmcd
#
# Track frame offsets:
#	150
#	17434
#	30386
#	44765
#	56615
#	70436
#	90794
#	104229
#	122169
#	138241
#	156603
#	172478
#	186789
#	203521
#	216125
#	236737
#	248532
#	263394
#
# Disc length: 3778
#
# Revision: 1
# Processed by: cddbd v1.5.1PL0 Copyright (c) Steve Scherf et al.
# Submitted via: CDex 1.40Release
# Normalized: r0:DSETVAR2,TDELIM( - )
#
DISCID=000ec012
DTITLE=Various Artist - Stampede Line dancers cd 1
DYEAR=2004
DGENRE=Country
TTITLE0=Dak ridge boys - Elvira (friendship freeze)
TTITLE1=Rednex - Cotton eye joe (country walking)
TTITLE2=Dwight Yoakam - Guitars and cadillacs (walk walk)
TTITLE3=John Michael Montgomery - Sold [Grundy gellop]
TTITLE4=Thumbleweeds - Somewhere between [single waltz{rose vally}]
TTITLE5=Brooks and dunn - Neon Moon [Neon neon]
TTITLE6=Tracktors - Settin'the woods on fire [Stompin' it out
TTITLE7=Susan mc Cann - Rose of my heart [rose of my heart]
TTITLE8=Barry Upton - Ride on in to the sunset [ into the sunset]
TTITLE9=Dario G - Carnival de paris [paris 98, carnival]
TTITLE10=Rednex - Riding alone [ridin']
TTITLE11=Ronnie mc Dowell - Smokey places [smokey places]
TTITLE12=Mike Henderson - Hillbilly jitters [Hillbilly jitters]
TTITLE13=Prairie Oyster - Juke joint johnny [johnny D]
TTITLE14=Steve Earl - copperhead road [copperhead road]
TTITLE15=kentucky headhunters - The ballad of Davy Crockett [Davy crockett]
TTITLE16=Linedance heaven - Elvis rhumba [graceland]
TTITLE17=Dolly parton - peace train [peace train]
EXTD=YEAR: 2004 ID3G: 2
EXTT0=
EXTT1=
EXTT2=
EXTT3=
EXTT4=
EXTT5=
EXTT6=
EXTT7=
EXTT8=
EXTT9=
EXTT10=
EXTT11=
EXTT12=
EXTT13=
EXTT14=
EXTT15=
EXTT16=
EXTT17=
PLAYORDER=
